# xmcd
#
# Track frame offsets: 
#        150
#        14207
#        35358
#        58112
#        80794
#        96736
#        113282
#        136082
#        157169
#        192096
#
# Disc length: 2981 seconds
#
# Revision: 0
# Processed by: cddbd v1.5.2PL0 Copyright (c) Steve Scherf et al.
# Submitted via: ExactAudioCopy v1.0b6
#
DISCID=880ba30a
DTITLE=Pino Daniele - NERO A META LIVE
DYEAR=2015
DGENRE=Rock
TTITLE0=Abusivo
TTITLE1=Sotto 'o sole
TTITLE2=E so cuntento 'e sta
TTITLE3=Quanno chiove
TTITLE4=Musica Musica
TTITLE5=Nun me scuccià
TTITLE6=Puozza passà nu guaio
TTITLE7=Tutta n'ata storia
TTITLE8=O scarrafone
TTITLE9=Yes I know my way
EXTD=
EXTT0=
EXTT1=
EXTT2=
EXTT3=
EXTT4=
EXTT5=
EXTT6=
EXTT7=
EXTT8=
EXTT9=
PLAYORDER=
